<mxfile host="app.diagrams.net" modified="2023-04-22T22:05:29.037Z" agent="Mozilla/5.0 (Windows NT 10.0; Win64; x64) AppleWebKit/537.36 (KHTML, like Gecko) Chrome/112.0.0.0 Safari/537.36" etag="vTE7Ena9zhfJTaIMcrer" version="21.2.1" type="device">
  <diagram id="R2lEEEUBdFMjLlhIrx00" name="Page-1">
    <mxGraphModel dx="1774" dy="903" grid="1" gridSize="10" guides="1" tooltips="1" connect="1" arrows="1" fold="1" page="1" pageScale="1" pageWidth="1100" pageHeight="1700" background="#FFFFFF" math="0" shadow="0" extFonts="Permanent Marker^https://fonts.googleapis.com/css?family=Permanent+Marker">
      <root>
        <mxCell id="0" />
        <mxCell id="1" parent="0" />
        <mxCell id="6R0vGIKDrxl8fBh4y2tq-8" value="checkmates: JSON" style="swimlane;childLayout=stackLayout;horizontal=1;startSize=30;horizontalStack=0;rounded=1;fontSize=16;fontStyle=0;strokeWidth=2;resizeParent=0;resizeLast=1;shadow=0;dashed=0;align=center;" parent="1" vertex="1">
          <mxGeometry x="400" y="370" width="201" height="130" as="geometry" />
        </mxCell>
        <mxCell id="6R0vGIKDrxl8fBh4y2tq-9" value="+ FEN: string&#xa;+ Moves: string&#xa;+ PuzzleId: string&#xa;+ Rating: number&#xa;+ Themes: string" style="align=left;strokeColor=none;fillColor=none;spacingLeft=4;fontSize=14;verticalAlign=top;resizable=0;rotatable=0;part=1;" parent="6R0vGIKDrxl8fBh4y2tq-8" vertex="1">
          <mxGeometry y="30" width="201" height="100" as="geometry" />
        </mxCell>
        <mxCell id="6R0vGIKDrxl8fBh4y2tq-66" value="users: JSON" style="swimlane;childLayout=stackLayout;horizontal=1;startSize=30;horizontalStack=0;rounded=1;fontSize=16;fontStyle=0;strokeWidth=2;resizeParent=0;resizeLast=1;shadow=0;dashed=0;align=center;" parent="1" vertex="1">
          <mxGeometry x="400" y="200" width="201" height="120" as="geometry" />
        </mxCell>
        <mxCell id="6R0vGIKDrxl8fBh4y2tq-67" value="+ userId: string&#xa;+ username: string&#xa;+ userSettings: string" style="align=left;strokeColor=none;fillColor=none;spacingLeft=4;fontSize=14;verticalAlign=top;resizable=0;rotatable=0;part=1;" parent="6R0vGIKDrxl8fBh4y2tq-66" vertex="1">
          <mxGeometry y="30" width="201" height="90" as="geometry" />
        </mxCell>
        <mxCell id="6R0vGIKDrxl8fBh4y2tq-73" value="custom-puzzles: JSON" style="swimlane;childLayout=stackLayout;horizontal=1;startSize=30;horizontalStack=0;rounded=1;fontSize=16;fontStyle=0;strokeWidth=2;resizeParent=0;resizeLast=1;shadow=0;dashed=0;align=center;" parent="1" vertex="1">
          <mxGeometry x="680" y="390" width="220" height="140" as="geometry" />
        </mxCell>
        <mxCell id="6R0vGIKDrxl8fBh4y2tq-74" value="+ date: string&#xa;+ puzzleId: string&#xa;+ username: string&#xa;+ fen: string&#xa;+ moves: string" style="align=left;strokeColor=none;fillColor=none;spacingLeft=4;fontSize=14;verticalAlign=top;resizable=0;rotatable=0;part=1;" parent="6R0vGIKDrxl8fBh4y2tq-73" vertex="1">
          <mxGeometry y="30" width="220" height="110" as="geometry" />
        </mxCell>
        <mxCell id="6R0vGIKDrxl8fBh4y2tq-75" value="leaderboards: JSON" style="swimlane;childLayout=stackLayout;horizontal=1;startSize=30;horizontalStack=0;rounded=1;fontSize=16;fontStyle=0;strokeWidth=2;resizeParent=0;resizeLast=1;shadow=0;dashed=0;align=center;" parent="1" vertex="1">
          <mxGeometry x="680" y="200" width="220" height="170" as="geometry" />
        </mxCell>
        <mxCell id="6R0vGIKDrxl8fBh4y2tq-76" value="+ bullet&#xa;     + username: string&#xa;     + score: number&#xa;     + time: number&#xa;+ classical&#xa;     + username: string&#xa;     + score: number&#xa;" style="align=left;strokeColor=none;fillColor=none;spacingLeft=4;fontSize=14;verticalAlign=top;resizable=0;rotatable=0;part=1;" parent="6R0vGIKDrxl8fBh4y2tq-75" vertex="1">
          <mxGeometry y="30" width="220" height="140" as="geometry" />
        </mxCell>
        <mxCell id="6R0vGIKDrxl8fBh4y2tq-81" value="" style="fontSize=12;html=1;startArrow=ERzeroToOne;endArrow=ERzeroToMany;rounded=0;labelBackgroundColor=default;strokeColor=default;fontFamily=Helvetica;fontColor=default;shape=connector;exitX=1;exitY=0.75;exitDx=0;exitDy=0;entryX=0;entryY=0.5;entryDx=0;entryDy=0;" parent="1" source="6R0vGIKDrxl8fBh4y2tq-67" target="6R0vGIKDrxl8fBh4y2tq-74" edge="1">
          <mxGeometry width="100" height="100" relative="1" as="geometry">
            <mxPoint x="400" y="250" as="sourcePoint" />
            <mxPoint x="640" y="480" as="targetPoint" />
            <Array as="points">
              <mxPoint x="640" y="298" />
              <mxPoint x="640" y="475" />
            </Array>
          </mxGeometry>
        </mxCell>
        <mxCell id="6R0vGIKDrxl8fBh4y2tq-83" value="" style="fontSize=12;html=1;startArrow=ERzeroToMany;endArrow=ERzeroToMany;rounded=0;labelBackgroundColor=default;strokeColor=default;fontFamily=Helvetica;fontColor=default;shape=connector;exitX=1.001;exitY=0.084;exitDx=0;exitDy=0;exitPerimeter=0;" parent="1" source="6R0vGIKDrxl8fBh4y2tq-67" edge="1">
          <mxGeometry width="100" height="100" relative="1" as="geometry">
            <mxPoint x="570" y="550" as="sourcePoint" />
            <mxPoint x="680" y="238" as="targetPoint" />
          </mxGeometry>
        </mxCell>
      </root>
    </mxGraphModel>
  </diagram>
</mxfile>
